<?xml version="1.0" encoding="utf-8"?>
<!-- Generator: Adobe Illustrator 25.2.2, SVG Export Plug-In . SVG Version: 6.00 Build 0)  -->
<svg version="1.1" id="Layer_1" xmlns="http://www.w3.org/2000/svg" xmlns:xlink="http://www.w3.org/1999/xlink" x="0px" y="0px"
	 viewBox="0 0 80 80" style="enable-background:new 0 0 80 80;" xml:space="preserve">
<style type="text/css">
	.st0{fill:#557FCF;}
	.st1{fill:#BDCEF4;}
</style>
<g id="Layer_1_1_">
	<path class="st0" d="M31.6,43.4L13,14.8l1.9-1.3l16.2,24.8l9.6-24.6l2.2,0.8L31.6,43.4z"/>
	<path class="st0" d="M66.6,68.5l-35-26L14.9,65.9L13,64.6l18.1-25.3L68,66.7L66.6,68.5z"/>
	<path class="st0" d="M31,39.8l36-12.7l0.8,2.2L31.7,42L31,39.8z"/>
	<circle class="st0" cx="31.3" cy="40.9" r="10.4"/>
</g>
<g id="Layer_2_1_">
	<path class="st0" d="M76.7,24.9c-0.2-1.7-1-3.2-2.3-4.3c-0.3-0.2-0.4-0.6-0.3-0.9l0.3-1.1c0.1-0.5-0.1-1-0.6-1.1l-2.6-0.8
		c-0.5-0.1-1,0.1-1.1,0.6l-0.3,1.1c-0.1,0.3-0.4,0.6-0.7,0.6c-1.7,0.2-3.2,1-4.3,2.3c-0.2,0.3-0.6,0.4-0.9,0.3l-1.1-0.3
		c-0.5-0.1-1,0.1-1.1,0.6l-1.1,3.5l2,0.6c0.3,0.1,0.6,0.4,0.6,0.7c0.2,1.7,1,3.2,2.3,4.3c0.3,0.2,0.4,0.6,0.3,0.9l-0.3,1.1
		c-0.1,0.5,0.1,1,0.6,1.1l2.6,0.8c0.5,0.1,1-0.1,1.1-0.6c0,0,0,0,0,0l0.3-1.1c0.1-0.3,0.4-0.6,0.7-0.6c1.7-0.2,3.2-1,4.3-2.3
		c0.2-0.3,0.6-0.4,0.9-0.3l1.1,0.3c0.5,0.1,1-0.1,1.1-0.6l0.8-2.6c0.1-0.5-0.1-1-0.6-1.1c0,0,0,0,0,0l-1.1-0.3
		C77,25.5,76.8,25.2,76.7,24.9z M69.3,27.9c-1.2-0.4-1.9-1.7-1.5-2.9c0.4-1.2,1.7-1.9,2.9-1.5c1.2,0.4,1.9,1.7,1.5,2.9
		C71.7,27.6,70.5,28.3,69.3,27.9C69.3,27.9,69.3,27.9,69.3,27.9L69.3,27.9z"/>
	<path class="st0" d="M19.3,10.6c-0.4-1.6-1.4-3.1-2.8-4c-0.3-0.2-0.4-0.6-0.4-0.9l0.2-1.1c0.1-0.5-0.2-1-0.7-1.1c0,0,0,0,0,0
		L12.9,3c-0.5-0.1-1,0.2-1.1,0.7c0,0,0,0,0,0l-0.2,1.1c-0.1,0.3-0.3,0.6-0.7,0.7C9.4,6,7.9,7,7,8.4C6.8,8.7,6.4,8.8,6.1,8.7L4.9,8.5
		C4.5,8.4,4,8.8,3.9,9.3c0,0,0,0,0,0l-0.7,3.6l2,0.4c0.3,0.1,0.6,0.3,0.7,0.7c0.4,1.6,1.4,3.1,2.8,4c0.3,0.2,0.4,0.6,0.4,0.9L8.9,20
		c-0.1,0.5,0.2,1,0.7,1.1l2.7,0.5c0.5,0.1,1-0.2,1.1-0.7l0.2-1.1c0.1-0.3,0.3-0.6,0.7-0.7c1.6-0.4,3.1-1.4,4-2.8
		c0.2-0.3,0.6-0.4,0.9-0.4l1.1,0.2c0.5,0.1,1-0.2,1.1-0.7l0.5-2.7c0.1-0.5-0.2-1-0.7-1.1L20,11.3C19.7,11.2,19.4,11,19.3,10.6z
		 M12.2,14.5c-1.2-0.2-2.1-1.4-1.8-2.7c0.2-1.2,1.4-2.1,2.7-1.8c1.2,0.2,2.1,1.4,1.8,2.7C14.7,13.9,13.5,14.7,12.2,14.5
		C12.2,14.5,12.2,14.5,12.2,14.5z"/>
	<path class="st1" d="M75,66.2c-0.8-1.5-2.1-2.7-3.6-3.3c-0.3-0.1-0.5-0.4-0.6-0.8L70.7,61c0-0.5-0.5-0.9-1-0.9L67,60.3
		c-0.5,0-0.9,0.5-0.9,1l0.1,1.2c0,0.4-0.2,0.7-0.5,0.8c-1.5,0.8-2.7,2.1-3.3,3.6c-0.1,0.3-0.4,0.5-0.8,0.6l-1.2,0.1
		c-0.5,0-0.9,0.5-0.9,0.9c0,0,0,0,0,0l0.2,3.7l2.1-0.1c0.4,0,0.7,0.2,0.8,0.5c0.8,1.5,2.1,2.7,3.6,3.3c0.3,0.1,0.5,0.4,0.6,0.8
		l0.1,1.2c0,0.5,0.4,0.9,0.9,0.9c0,0,0,0,0,0l2.8-0.1c0.5,0,0.9-0.5,0.9-1l-0.1-1.2c0-0.4,0.2-0.7,0.5-0.8c1.5-0.8,2.7-2.1,3.3-3.6
		c0.1-0.3,0.4-0.5,0.8-0.6l1.2-0.1c0.5,0,0.9-0.5,0.9-1c0,0,0,0,0,0l-0.1-2.8c0-0.5-0.5-0.9-0.9-0.9c0,0,0,0,0,0l-1.2,0.1
		C75.5,66.7,75.1,66.5,75,66.2z M69,71.6c-1.3,0.1-2.3-0.9-2.4-2.2c-0.1-1.3,0.9-2.3,2.2-2.4s2.3,0.9,2.4,2.2c0,0,0,0,0,0
		C71.2,70.5,70.3,71.6,69,71.6L69,71.6z"/>
	<path class="st1" d="M48,7.1c-1.2-1.2-2.8-1.9-4.4-2c-0.4,0-0.7-0.3-0.8-0.6l-0.4-1.1c-0.2-0.5-0.7-0.7-1.2-0.5l-2.6,1
		C38.1,4,37.9,4.6,38.1,5l0.4,1.1c0.1,0.3,0,0.7-0.2,1c-1.2,1.2-1.9,2.8-2,4.4c0,0.4-0.3,0.7-0.6,0.8l-1.1,0.4
		c-0.5,0.2-0.7,0.7-0.5,1.2l1.3,3.4l1.9-0.7c0.3-0.1,0.7,0,1,0.2c1.2,1.2,2.8,1.9,4.4,2c0.4,0,0.7,0.3,0.8,0.6l0.4,1.1
		c0.2,0.5,0.7,0.7,1.2,0.5l2.6-1c0.5-0.2,0.7-0.7,0.5-1.2c0,0,0,0,0,0l-0.4-1.1c-0.1-0.3,0-0.7,0.2-1c1.2-1.2,1.9-2.8,2-4.4
		c0-0.4,0.3-0.7,0.6-0.8l1.1-0.4c0.5-0.2,0.7-0.7,0.5-1.2c0,0,0,0,0,0l-1-2.6C51,7,50.5,6.7,50,6.9l-1.1,0.4
		C48.6,7.4,48.2,7.4,48,7.1z M43.9,14.1c-1.2,0.4-2.5-0.2-2.9-1.3c-0.4-1.2,0.2-2.5,1.3-2.9c1.2-0.4,2.5,0.2,2.9,1.3c0,0,0,0,0,0
		C45.7,12.3,45.1,13.6,43.9,14.1z"/>
	<path class="st1" d="M18.5,63.6c-0.9-1.4-2.2-2.5-3.8-3c-0.3-0.1-0.6-0.4-0.6-0.8l-0.1-1.2c-0.1-0.5-0.5-0.9-1-0.8c0,0,0,0,0,0
		l-2.7,0.3c-0.5,0.1-0.9,0.5-0.8,1c0,0,0,0,0,0l0.1,1.2c0,0.3-0.1,0.7-0.4,0.9c-1.4,0.9-2.5,2.2-3,3.8c-0.1,0.3-0.4,0.6-0.8,0.6
		l-1.2,0.1c-0.5,0.1-0.9,0.5-0.8,1c0,0,0,0,0,0l0.4,3.6l2.1-0.2c0.3,0,0.7,0.1,0.9,0.4c0.9,1.4,2.2,2.5,3.8,3
		c0.3,0.1,0.6,0.4,0.6,0.8l0.1,1.2c0.1,0.5,0.5,0.9,1,0.8c0,0,0,0,0,0l2.7-0.3c0.5-0.1,0.8-0.5,0.8-1l-0.1-1.2
		c0-0.3,0.1-0.7,0.4-0.9c1.4-0.9,2.5-2.2,3-3.8c0.1-0.3,0.4-0.6,0.8-0.6l1.2-0.1c0.5-0.1,0.9-0.5,0.8-1c0,0,0,0,0,0l-0.3-2.7
		c-0.1-0.5-0.5-0.9-1-0.8c0,0,0,0,0,0L19.3,64C19,64.1,18.6,63.9,18.5,63.6z M12.8,69.4c-1.3,0.2-2.4-0.7-2.5-2
		c-0.2-1.3,0.7-2.4,2-2.5c1.3-0.2,2.4,0.7,2.5,2c0,0,0,0,0,0C15,68.1,14.1,69.3,12.8,69.4C12.8,69.4,12.8,69.4,12.8,69.4z"/>
</g>
</svg>
