<?xml version="1.0" encoding="utf-8"?>
<!-- Generator: Adobe Illustrator 25.2.2, SVG Export Plug-In . SVG Version: 6.00 Build 0)  -->
<svg version="1.1" id="Layer_1" xmlns="http://www.w3.org/2000/svg" xmlns:xlink="http://www.w3.org/1999/xlink" x="0px" y="0px"
	 viewBox="0 0 80 80" style="enable-background:new 0 0 80 80;" xml:space="preserve">
<style type="text/css">
	.st0{fill:#557FCF;}
	.st1{opacity:0.6;fill:#FFFFFF;enable-background:new    ;}
</style>
<g>
	<g id="Layer_2_1_">
		<path class="st0" d="M10.3,2.2h32c2.4,0,4.4,2,4.4,4.4v66.9c0,2.4-2,4.4-4.4,4.4h-32c-2.4,0-4.4-2-4.4-4.4V6.5
			C5.9,4.1,7.9,2.2,10.3,2.2z"/>
		<path class="st1" d="M10.2,9.1v62.5c0,1.3,1,2.3,2.3,2.3h27.9c1.3,0,2.3-1,2.3-2.3V9.1c0-1.7-1.3-3-3-3c0,0,0,0,0,0h-3.4
			c-0.7,0-1.2,0.5-1.2,1.2l0,1c0,0.8-0.6,1.4-1.4,1.4L18.8,9.8c-0.8,0-1.4-0.6-1.4-1.3l0-1.2c0-0.7-0.6-1.2-1.2-1.2h-2.9
			C11.6,6.1,10.2,7.4,10.2,9.1C10.2,9.1,10.2,9.1,10.2,9.1z"/>
	</g>
	<g id="Layer_4">
		<path class="st0" d="M21.3,22.3h51.8c0.5,0,0.9,0.4,0.9,0.9v29.9c0,0.5-0.4,0.9-0.9,0.9H21.3c-0.5,0-0.9-0.4-0.9-0.9V23.3
			C20.3,22.7,20.8,22.3,21.3,22.3z"/>
		<path class="st1" d="M26.1,28.4h7c0.6,0,1,0.5,1,1v3.9c0,0.6-0.5,1-1,1h-7c-0.6,0-1-0.5-1-1v-3.9C25.1,28.9,25.6,28.4,26.1,28.4z"
			/>
		<circle class="st1" cx="60.2" cy="45.3" r="4.7"/>
		<circle class="st1" cx="65.6" cy="45.3" r="4.7"/>
		<path class="st1" d="M70.2,25.3H71c0.3,0,0.5,0.2,0.5,0.5v11.3c0,0.3-0.2,0.5-0.5,0.5h-0.8c-0.3,0-0.5-0.2-0.5-0.5V25.8
			C69.7,25.5,69.9,25.3,70.2,25.3z"/>
		<path class="st1" d="M26,43.8h4.5c0.5,0,0.9,0.4,0.9,0.9v1.3c0,0.5-0.4,0.9-0.9,0.9H26c-0.5,0-0.9-0.4-0.9-0.9v-1.3
			C25.1,44.2,25.5,43.8,26,43.8z"/>
		<path class="st1" d="M35.1,43.8h4.5c0.5,0,0.9,0.4,0.9,0.9v1.3c0,0.5-0.4,0.9-0.9,0.9h-4.5c-0.5,0-0.9-0.4-0.9-0.9v-1.3
			C34.2,44.2,34.6,43.8,35.1,43.8z"/>
		<path class="st1" d="M43.6,43.8h4.5c0.5,0,0.9,0.4,0.9,0.9v1.3c0,0.5-0.4,0.9-0.9,0.9h-4.5c-0.5,0-0.9-0.4-0.9-0.9v-1.3
			C42.7,44.2,43.1,43.8,43.6,43.8z"/>
	</g>
</g>
</svg>
