<?xml version="1.0" encoding="utf-8"?>
<!-- Generator: Adobe Illustrator 25.2.2, SVG Export Plug-In . SVG Version: 6.00 Build 0)  -->
<svg version="1.1" id="Layer_1" xmlns="http://www.w3.org/2000/svg" xmlns:xlink="http://www.w3.org/1999/xlink" x="0px" y="0px"
	 viewBox="0 0 80 80" style="enable-background:new 0 0 80 80;" xml:space="preserve">
<style type="text/css">
	.st0{fill:#557FCF;}
	.st1{fill:#BDCEF4;}
	.st2{fill:#FAFAFA;}
</style>
<g>
	<circle class="st0" cx="63.3" cy="70.2" r="8.3"/>
	<circle class="st0" cx="30.1" cy="70.2" r="8.3"/>
	<path class="st1" d="M77.8,16c-0.3-0.4-0.8-0.6-1.2-0.6H16.8c-0.9,0-1.7,0.7-1.7,1.7c0,0,0,0,0,0c0,0.1,0,0.2,0,0.3l6.6,33.2
		c0.2,0.8,0.8,1.3,1.6,1.3c0.1,0,0.1,0,0.2,0l49.8-6.6c0.7-0.1,1.3-0.7,1.4-1.4l3.3-26.6C78.3,16.8,78.1,16.4,77.8,16z"/>
	<path class="st2" d="M30.1,45.3c-0.8,0-1.5-0.6-1.6-1.4L25.1,24c-0.1-0.9,0.5-1.7,1.4-1.9c0.9-0.1,1.7,0.5,1.9,1.3l3.3,19.9
		c0.1,0.9-0.5,1.8-1.4,1.9C30.3,45.3,30.2,45.3,30.1,45.3z"/>
	<path class="st2" d="M38.4,43.7c-0.9,0-1.6-0.7-1.7-1.5l-1.7-18.3c-0.1-0.9,0.6-1.7,1.5-1.8h0c0.9-0.1,1.7,0.6,1.8,1.5l0,0L40,41.8
		c0.1,0.9-0.6,1.7-1.5,1.8l0,0L38.4,43.7z"/>
	<path class="st2" d="M46.7,42c-0.9,0-1.7-0.7-1.7-1.7V23.7c0-0.9,0.8-1.6,1.7-1.6c0.9,0,1.6,0.7,1.6,1.6v16.6
		C48.3,41.3,47.6,42,46.7,42z"/>
	<path class="st2" d="M55,40.3h-0.2c-0.9-0.1-1.6-0.9-1.5-1.8c0,0,0,0,0,0v0L55,23.6c0.1-0.9,0.9-1.6,1.8-1.5
		c0.9,0.1,1.6,0.9,1.5,1.8c0,0,0,0,0,0l0,0l-1.7,14.9C56.5,39.7,55.8,40.3,55,40.3z"/>
	<path class="st2" d="M63.3,38.7c-0.9,0-1.7-0.7-1.7-1.7c0-0.1,0-0.3,0-0.4L65,23.3c0.2-0.9,1.1-1.5,2-1.3c0.9,0.2,1.5,1.1,1.3,2
		l0,0c0,0,0,0.1,0,0.1l-3.3,13.3C64.7,38.2,64,38.7,63.3,38.7z"/>
	<path class="st0" d="M69.9,58.6H31.6c-5.5,0-10.3-3.9-11.4-9.3L12.1,8.8H3.5c-0.9,0-1.7-0.7-1.7-1.6c0-0.9,0.7-1.7,1.6-1.7
		c0,0,0,0,0.1,0h10c0.8,0,1.5,0.6,1.6,1.3l8.4,41.8c0.8,3.9,4.2,6.7,8.1,6.7h38.3c0.9,0,1.6,0.8,1.6,1.7
		C71.5,57.9,70.8,58.6,69.9,58.6L69.9,58.6z"/>
</g>
</svg>
