<?xml version="1.0" encoding="utf-8"?>
<!-- Generator: Adobe Illustrator 25.2.2, SVG Export Plug-In . SVG Version: 6.00 Build 0)  -->
<svg version="1.1" id="Layer_1" xmlns="http://www.w3.org/2000/svg" xmlns:xlink="http://www.w3.org/1999/xlink" x="0px" y="0px"
	 viewBox="0 0 80 80" style="enable-background:new 0 0 80 80;" xml:space="preserve">
<style type="text/css">
	.st0{fill:#4890E3;}
	.st1{opacity:0.6;fill:#FFFFFF;enable-background:new    ;}
	.st2{fill:#BDCEF4;}
	.st3{fill:#2970D6;}
	.st4{fill:#557FCF;}
	.st5{opacity:0.3;}
	.st6{fill:#FFFFFF;}
</style>
<g id="Layer_2_1_">
	<g>
		<path class="st0" d="M46.5,38.1H8.2c-2.2,0-4.1-1.8-4.1-4.1V10c0-2.2,1.8-4.1,4.1-4.1h38.3c2.2,0,4.1,1.8,4.1,4.1V34
			C50.5,36.3,48.7,38.1,46.5,38.1z"/>
		<path class="st1" d="M46.5,5.9h-3.6c2.2,0,4.1,1.8,4.1,4.1V34c0,2.2-1.8,4.1-4.1,4.1h3.6c2.2,0,4.1-1.8,4.1-4.1V10
			C50.5,7.8,48.7,5.9,46.5,5.9z"/>
		<path class="st2" d="M50.5,14.7V10c0-2.2-1.8-4.1-4.1-4.1H8.2c-2.2,0-4.1,1.8-4.1,4.1v4.7H50.5z"/>
		<path class="st1" d="M46.5,5.9h-3.6c2.2,0,4.1,1.8,4.1,4.1v4.7h3.6V10C50.5,7.8,48.7,5.9,46.5,5.9z"/>
		<path class="st1" d="M17.4,22.9c0,2.4-1.9,4.3-4.3,4.3c-2.4,0-4.3-1.9-4.3-4.3c0-2.4,1.9-4.3,4.3-4.3S17.4,20.5,17.4,22.9z"/>
		<path class="st1" d="M22.6,22.9c0,2.4-1.9,4.3-4.3,4.3S14,25.2,14,22.9c0-2.4,1.9-4.3,4.3-4.3S22.6,20.5,22.6,22.9z"/>
		<rect x="31" y="21" class="st1" width="11.1" height="3.5"/>
	</g>
</g>
<g id="Layer_1_1_">
	<path class="st0" d="M76.9,52.4c0,13.9-11.3,25.2-25.2,25.2c-13.9,0-25.2-11.3-25.2-25.2c0-13.9,11.3-25.2,25.2-25.2
		C65.6,27.2,76.9,38.4,76.9,52.4z"/>
	<path class="st3" d="M51.6,27.2c-0.6,0-1.2,0-1.8,0.1c13.1,0.9,23.4,11.8,23.4,25.2c0,13.3-10.3,24.2-23.4,25.2
		c0.6,0,1.2,0.1,1.8,0.1c13.9,0,25.2-11.3,25.2-25.2C76.9,38.4,65.6,27.2,51.6,27.2z"/>
	<g>
		<g>
			<path class="st4" d="M54.9,9.4c0.1,0,0.3,0,0.4,0c0.2,0,0.3,0,0.5,0c0.1,0,0.2,0,0.3,0c0.1,0,0.1,0,0.2,0c0,0,0.1,0,0.1,0
				c0.1,0-0.2,0,0,0c1.3,0.2,2.6,0.5,3.8,0.9c0.8,0.3,1.4,0.5,2.2,1c0.8,0.4,1.7,1,2.4,1.5c1.6,1.3,3.1,3,4.1,4.8
				c1.6,2.9,2.4,6.1,2.6,9.4c0.1,0.8,1.3,0.8,1.2,0c-0.4-5.5-2.3-11-6.6-14.6c-2.6-2.2-5.7-3.6-9.1-4.1c-0.7-0.1-1.4-0.2-2.1-0.2
				C54.1,8.2,54.1,9.4,54.9,9.4L54.9,9.4z"/>
		</g>
	</g>
	<g>
		<g>
			<path class="st4" d="M67.6,24.9c1.3,1.6,2.6,3.2,4,4.8c0.2,0.2,0.7,0.2,0.9,0c1.4-1.6,2.7-3.2,4.1-4.8c0.5-0.6-0.4-1.5-0.9-0.9
				c-1.4,1.6-2.7,3.2-4.1,4.8c0.3,0,0.6,0,0.9,0c-1.3-1.6-2.6-3.2-4-4.8C67.9,23.4,67.1,24.3,67.6,24.9L67.6,24.9z"/>
		</g>
	</g>
	<g>
		<g>
			<path class="st4" d="M10.2,41.6c-0.3,1.9-0.1,4,0.2,5.9c0.8,4.1,3,7.9,6.3,10.5c2.7,2.1,6,3.5,9.3,4.3c0.8,0.2,1.1-1,0.3-1.2
				c-5-1.2-9.9-3.8-12.7-8.3c-1.7-2.7-2.4-5.9-2.4-9c0-0.5,0-0.9,0.1-1.4c0-0.1,0-0.3,0-0.4c0-0.2,0,0.2,0,0
				c0.1-0.3-0.1-0.7-0.4-0.8C10.7,41.1,10.3,41.3,10.2,41.6L10.2,41.6z"/>
		</g>
	</g>
	<g>
		<g>
			<path class="st4" d="M7.1,45.2c1.4-1.5,2.9-3,4.3-4.4c-0.3,0-0.6-0.1-1-0.1c1.2,1.7,2.5,3.4,3.7,5.1c0.2,0.3,0.5,0.4,0.8,0.2
				c0.3-0.2,0.4-0.6,0.2-0.8c-1.2-1.7-2.5-3.4-3.7-5.1c-0.2-0.3-0.7-0.4-1-0.1c-1.4,1.5-2.9,3-4.3,4.4C5.7,44.9,6.5,45.8,7.1,45.2
				L7.1,45.2z"/>
		</g>
	</g>
	<g class="st5">
		<path class="st6" d="M49.8,27.2c-0.6,0.9-1.2,1.9-1.7,2.8c-0.1,0.2-0.2,0.5-0.4,0.7l-0.3,0.7c-0.1,0.2-0.2,0.5-0.3,0.8
			c-0.1,0.1-0.1,0.2-0.2,0.4L46.8,33c-0.4,1-0.8,2-1.1,3.1c-0.1,0.3-0.2,0.5-0.2,0.8c-0.1,0.3-0.2,0.5-0.2,0.8l-0.2,0.8L45,38.9
			l-0.1,0.2l0,0.2c-0.5,2.1-0.9,4.3-1.1,6.5c-0.2,2.2-0.3,4.4-0.2,6.5l0.1,1.6c0,0.3,0,0.5,0.1,0.8l0.1,0.8l0.1,0.8
			c0,0.3,0.1,0.5,0.1,0.8l0.2,1.6l0.3,1.6l0.1,0.8c0.1,0.3,0.1,0.5,0.2,0.8l0.3,1.6c0,0.1,0.1,0.3,0.1,0.4l0.1,0.4l0.2,0.8
			c0.5,2.1,1.2,4.2,1.9,6.3c0,0.1,0.1,0.3,0.1,0.4l0.1,0.4L48,73l0.6,1.5l1.3,3c-0.4-1-0.9-2-1.3-3L47.9,73l-0.3-0.8l-0.2-0.4
			c0-0.1-0.1-0.3-0.1-0.4l-0.5-1.5l-0.3-0.8c-0.1-0.3-0.2-0.5-0.2-0.8l-0.5-1.6l-0.1-0.4L45.5,66l-0.2-0.8l-0.2-0.8L45,64
			c0-0.1-0.1-0.3-0.1-0.4L44.6,62c-0.1-0.3-0.1-0.5-0.2-0.8l-0.1-0.8L44,58.8l-0.2-1.6c0-0.3-0.1-0.5-0.1-0.8l-0.1-0.8l-0.1-0.8
			c0-0.3-0.1-0.5-0.1-0.8l-0.1-1.6c-0.1-2.2,0-4.4,0.2-6.6l0.2-1.6l0.2-1.6c0-0.1,0-0.3,0.1-0.4l0.1-0.4l0.2-0.8
			c0-0.3,0.1-0.5,0.2-0.8l0.2-0.8l0-0.2l0.1-0.2l0.1-0.4l0.2-0.8c0.1-0.3,0.2-0.5,0.2-0.8c0.1-0.3,0.2-0.5,0.2-0.8
			c0.3-1,0.7-2.1,1.1-3.1l0.2-0.4c0.1-0.1,0.1-0.2,0.2-0.4c0.1-0.2,0.2-0.5,0.3-0.7l0.4-0.7c0.1-0.2,0.3-0.5,0.4-0.7
			c0.3-0.5,0.5-1,0.8-1.4C49.2,28.1,49.5,27.7,49.8,27.2z"/>
	</g>
	<g class="st5">
		<path class="st6" d="M51.6,27.2c0.6,0.9,1.1,1.9,1.6,2.9c0.5,1,1,2,1.4,3c0.8,2,1.5,4.1,2.1,6.3c1.1,4.3,1.7,8.7,1.7,13.1
			c0,4.4-0.6,8.8-1.8,13.1l-0.2,0.8L56.2,67c-0.2,0.5-0.3,1-0.5,1.6c-0.1,0.3-0.2,0.5-0.3,0.8c-0.1,0.3-0.2,0.5-0.3,0.8
			c-0.2,0.5-0.4,1-0.6,1.5c-0.8,2-1.8,4-2.9,5.9c1-2,1.9-3.9,2.7-6c0.2-0.5,0.4-1,0.6-1.5c0.1-0.3,0.2-0.5,0.3-0.8
			c0.1-0.3,0.2-0.5,0.3-0.8c0.2-0.5,0.3-1,0.5-1.6l0.2-0.8l0.2-0.8l0.1-0.4l0.1-0.4l0.2-0.8L57,63l0.1-0.4l0.1-0.4
			c0.2-1.1,0.4-2.2,0.5-3.2c0.1-1.1,0.3-2.2,0.3-3.3c0.1-1.1,0.1-2.2,0.1-3.3c0-1.1,0-2.2-0.1-3.3c0-0.3,0-0.5-0.1-0.8L58,47.4
			l-0.1-0.8c0-0.3-0.1-0.5-0.1-0.8c-0.3-2.2-0.7-4.3-1.2-6.5c-0.5-2.1-1.2-4.2-2-6.3c-0.4-1-0.8-2-1.3-3c-0.2-0.5-0.5-1-0.7-1.5
			C52.2,28.1,51.9,27.6,51.6,27.2z"/>
	</g>
	<g class="st5">
		<path class="st6" d="M26.8,48.2c1-0.5,1.9-1,2.9-1.4c1-0.4,2-0.8,3-1.2c2-0.7,4.1-1.3,6.2-1.9c2.1-0.5,4.2-0.9,6.4-1.1
			c1.1-0.1,2.2-0.2,3.2-0.3c1.1-0.1,2.2-0.1,3.2-0.1c4.3,0,8.7,0.5,12.9,1.7l0.4,0.1l0.4,0.1l0.8,0.2l0.8,0.2c0.1,0,0.3,0.1,0.4,0.1
			l0.4,0.1c0.3,0.1,0.5,0.2,0.8,0.3l0.8,0.3c0.1,0,0.3,0.1,0.4,0.1l0.4,0.2l0.8,0.3c2,0.9,3.9,1.8,5.8,2.9c-1.9-1.1-3.8-2-5.8-2.8
			c-1-0.4-2-0.8-3-1.1l-0.4-0.1c-0.1,0-0.3-0.1-0.4-0.1l-0.8-0.2l-0.8-0.2L65,44.1L64.6,44l-0.8-0.2l-0.8-0.2
			c-0.3-0.1-0.5-0.1-0.8-0.2c-0.3-0.1-0.5-0.1-0.8-0.2c-1.1-0.2-2.1-0.4-3.2-0.5c-1.1-0.1-2.1-0.2-3.2-0.3c-1.1-0.1-2.2-0.1-3.2-0.1
			c-1.1,0-2.2,0-3.2,0.1s-2.2,0.2-3.2,0.3c-2.1,0.3-4.3,0.6-6.4,1.1c-2.1,0.5-4.2,1.1-6.2,1.8c-1,0.4-2,0.7-3,1.1
			c-0.5,0.2-1,0.4-1.5,0.6C27.7,47.7,27.2,47.9,26.8,48.2z"/>
	</g>
	<g class="st5">
		<path class="st6" d="M26.4,52.4c0.5,0.3,0.9,0.6,1.4,0.9c0.5,0.3,1,0.5,1.4,0.8c1,0.5,2,0.9,3,1.4c2,0.8,4.1,1.5,6.3,2
			c2.1,0.5,4.3,0.9,6.5,1.1c0.3,0,0.5,0.1,0.8,0.1l0.8,0.1l0.8,0.1c0.3,0,0.5,0,0.8,0c1.1,0,2.2,0.1,3.3,0c2.2-0.1,4.4-0.2,6.5-0.6
			c2.2-0.3,4.3-0.8,6.4-1.3c2.1-0.6,4.2-1.2,6.3-2c2.1-0.8,4.1-1.6,6.1-2.6c-2,1-4,1.9-6,2.7c-2.1,0.8-4.1,1.5-6.3,2.1
			c-0.5,0.1-1.1,0.3-1.6,0.4l-0.8,0.2l-0.8,0.2L61,58l-0.4,0.1l-0.8,0.2l-0.8,0.1c-0.1,0-0.3,0-0.4,0.1l-0.4,0.1
			c-2.2,0.3-4.4,0.5-6.6,0.6c-4.4,0.1-8.8-0.4-13.1-1.5c-1.1-0.3-2.1-0.6-3.2-0.9c-1-0.3-2.1-0.7-3.1-1.2c-1-0.4-2-0.9-3-1.4
			C28.3,53.6,27.3,53,26.4,52.4z"/>
	</g>
	<g class="st5">
		<path class="st6" d="M31,66.8c0.7,0.5,1.5,0.9,2.3,1.4c0.8,0.4,1.6,0.8,2.5,1.1c1.7,0.7,3.4,1.2,5.1,1.6c1.7,0.4,3.5,0.7,5.3,0.9
			c1.8,0.2,3.6,0.2,5.4,0.2l1.3-0.1c0.1,0,0.2,0,0.3,0l0.3,0l0.7-0.1l0.7-0.1c0.1,0,0.2,0,0.3,0l0.3,0l1.3-0.2
			c0.4-0.1,0.9-0.1,1.3-0.2l0.7-0.1c0.2,0,0.4-0.1,0.7-0.1l1.3-0.3l0.2,0l0.2,0l0.3-0.1l0.7-0.2l0.7-0.2l0.3-0.1
			c0.1,0,0.2-0.1,0.3-0.1l1.3-0.4c0.2-0.1,0.4-0.1,0.6-0.2l0.6-0.2l1.3-0.4l0.3-0.1l0.3-0.1l0.6-0.2l1.3-0.5l2.5-1
			c-0.8,0.4-1.6,0.7-2.5,1.1l-1.3,0.5L68,68.7l-0.3,0.1l-0.3,0.1l-1.3,0.5l-0.6,0.2c-0.2,0.1-0.4,0.1-0.6,0.2l-1.3,0.4
			c-0.1,0-0.2,0.1-0.3,0.1l-0.3,0.1l-0.7,0.2l-0.7,0.2l-0.3,0.1l-0.2,0l-0.2,0l-1.3,0.3c-0.2,0-0.4,0.1-0.7,0.1l-0.7,0.1
			c-0.4,0.1-0.9,0.2-1.3,0.2l-1.3,0.2l-0.3,0c-0.1,0-0.2,0-0.3,0L54.2,72l-0.7,0.1l-0.3,0c-0.1,0-0.2,0-0.3,0l-1.4,0.1
			c-1.8,0-3.6,0-5.4-0.2l-1.3-0.2l-1.3-0.2c-0.4-0.1-0.9-0.2-1.3-0.2c-0.4-0.1-0.9-0.2-1.3-0.3c-1.8-0.4-3.5-1-5.1-1.7
			c-0.8-0.4-1.6-0.7-2.4-1.2c-0.2-0.1-0.4-0.2-0.6-0.3c-0.2-0.1-0.4-0.2-0.6-0.3C31.7,67.3,31.3,67.1,31,66.8z"/>
	</g>
	<g class="st5">
		<path class="st6" d="M32,36.6c0.7-0.5,1.4-0.9,2.2-1.3c0.8-0.4,1.5-0.8,2.3-1.1c1.6-0.7,3.2-1.3,4.9-1.7c1.7-0.5,3.4-0.8,5.1-1
			c0.9-0.1,1.7-0.2,2.6-0.2c0.9,0,1.7-0.1,2.6-0.1c1.7,0,3.4,0.2,5.2,0.4l0.6,0.1c0.2,0,0.4,0.1,0.6,0.1c0.4,0.1,0.8,0.2,1.3,0.3
			c0.8,0.2,1.7,0.4,2.5,0.6c1.7,0.5,3.3,1.1,4.9,1.7c1.6,0.7,3.1,1.4,4.6,2.3c-1.5-0.8-3.1-1.5-4.7-2.2c-0.2-0.1-0.4-0.2-0.6-0.2
			L65.4,34l-0.3-0.1l-0.3-0.1l-0.6-0.2c-0.2-0.1-0.4-0.1-0.6-0.2c-0.2-0.1-0.4-0.1-0.6-0.2c-0.4-0.1-0.8-0.2-1.2-0.4
			c-0.2-0.1-0.4-0.1-0.6-0.2l-0.6-0.2c-0.2-0.1-0.4-0.1-0.6-0.1c-0.2,0-0.4-0.1-0.6-0.1c-0.4-0.1-0.8-0.2-1.3-0.2
			c-0.2,0-0.4-0.1-0.6-0.1l-0.6-0.1c-1.7-0.2-3.4-0.4-5.1-0.4c-3.4-0.1-6.9,0.4-10.2,1.2c-1.7,0.4-3.3,1-4.9,1.6
			c-0.8,0.3-1.6,0.7-2.3,1.1c-0.4,0.2-0.8,0.4-1.1,0.6C32.7,36.1,32.3,36.3,32,36.6z"/>
	</g>
</g>
</svg>
