<?xml version="1.0" encoding="utf-8"?>
<!-- Generator: Adobe Illustrator 25.2.2, SVG Export Plug-In . SVG Version: 6.00 Build 0)  -->
<svg version="1.1" id="Layer_2_1_" xmlns="http://www.w3.org/2000/svg" xmlns:xlink="http://www.w3.org/1999/xlink" x="0px" y="0px"
	 viewBox="0 0 80 80" style="enable-background:new 0 0 80 80;" xml:space="preserve">
<style type="text/css">
	.st0{fill:#557FCF;}
	.st1{opacity:0.6;fill:#FFFFFF;enable-background:new    ;}
	.st2{fill:#4271BC;}
	.st3{opacity:0.6;}
	.st4{fill:#FFFFFF;}
</style>
<path class="st0" d="M30.9,4.4H5c-1.2,0-2.2,1-2.2,2.2l0,0v47.4c0,1.2,1,2.2,2.2,2.2c0,0,0,0,0,0h37.6c1.2,0,2.2-1,2.2-2.2
	c0,0,0,0,0,0V18.4L30.9,4.4z"/>
<polygon class="st1" points="30.9,4.4 30.9,18.4 44.8,18.4 "/>
<path class="st2" d="M61.4,23.9h-26c-1.2,0-2.2,1-2.2,2.2v47.4c0,1.2,1,2.2,2.2,2.2h37.6c1.2,0,2.2-1,2.2-2.2c0,0,0,0,0,0V37.9
	L61.4,23.9z"/>
<path class="st0" d="M63.2,23.9h-26c-1.2,0-2.2,1-2.2,2.2c0,0,0,0,0,0v47.4c0,1.2,1,2.2,2.2,2.2h37.6c1.2,0,2.2-1,2.2-2.2
	c0,0,0,0,0,0V37.9L63.2,23.9z"/>
<polygon class="st1" points="63.3,23.9 63.3,37.9 77.2,37.9 "/>
<g class="st3">
	<path class="st4" d="M48.2,45.3l-5.6,4.9l-0.8,0.7c-0.5,0.4-0.5,1.4,0,1.8l5.6,4.5l0.8,0.7c0.5,0.4,1.3,0.5,1.8,0
		c0.4-0.4,0.5-1.4,0-1.8l-5.6-4.5l-0.8-0.7v1.8l5.6-4.9l0.8-0.7c0.5-0.4,0.5-1.3,0-1.8C49.5,44.8,48.7,44.9,48.2,45.3L48.2,45.3z"/>
</g>
<g class="st3">
	<path class="st4" d="M61.2,47.1l5.6,4.9l0.8,0.7v-1.8L62,55.4L61.2,56c-0.5,0.4-0.4,1.3,0,1.8c0.5,0.5,1.2,0.4,1.8,0l5.6-4.5
		l0.8-0.7c0.5-0.4,0.5-1.4,0-1.8L63.8,46L63,45.3c-0.5-0.4-1.3-0.5-1.8,0C60.7,45.8,60.7,46.7,61.2,47.1L61.2,47.1z"/>
</g>
<g class="st3">
	<path class="st4" d="M56.9,45.6L52.6,55L52,56.3c-0.3,0.6-0.2,1.4,0.5,1.7c0.5,0.3,1.4,0.2,1.7-0.5l4.3-9.4l0.6-1.3
		c0.3-0.6,0.2-1.4-0.5-1.7C58.1,44.8,57.2,45,56.9,45.6L56.9,45.6z"/>
</g>
</svg>
