<?xml version="1.0" encoding="utf-8"?>
<!-- Generator: Adobe Illustrator 25.2.2, SVG Export Plug-In . SVG Version: 6.00 Build 0)  -->
<svg version="1.1" id="Layer_1" xmlns="http://www.w3.org/2000/svg" xmlns:xlink="http://www.w3.org/1999/xlink" x="0px" y="0px"
	 viewBox="0 0 80 80" style="enable-background:new 0 0 80 80;" xml:space="preserve">
<style type="text/css">
	.st0{fill:#557FCF;}
	.st1{opacity:0.6;fill:#FFFFFF;enable-background:new    ;}
	.st2{fill:#B7CCE5;}
</style>
<g id="Layer_3">
	<path class="st0" d="M65.5,27h-3.6c-0.5-2.6-1.4-5-2.7-7.3l2.6-2.8c1-1,0.9-2.7-0.2-3.6c0,0,0,0,0,0l-3.4-3.1
		c-1.1-1-2.7-0.9-3.6,0.2l-2,2.2c-2.4-1.7-5.2-2.9-8.1-3.5V5.7c0-1.4-1.2-2.6-2.6-2.6c0,0,0,0,0,0h-4.6c-1.4,0-2.6,1.2-2.6,2.6v3.6
		c-2.6,0.6-5,1.7-7.2,3.2l-2.4-2.4c-1-1-2.6-1-3.6,0c0,0,0,0,0,0l-3.2,3.2c-1,1-1,2.6,0,3.6c0,0,0,0,0,0l2.6,2.6
		c-1.4,2.3-2.3,4.8-2.8,7.4H14c-1.4,0-2.5,1.1-2.5,2.5v2.3c0,0.5,0.4,0.8,0.8,0.8l0,0H18C18.9,44,28.4,53,40.1,53s21.2-9,22.1-20.4
		h5.1c0.5,0,0.8-0.4,0.8-0.8v-2.3C68.1,28.1,66.9,27,65.5,27C65.5,27,65.5,27,65.5,27z M40,44.2c-7.1,0-12.9-5.7-12.9-12.8
		c0-7.1,5.7-12.9,12.8-12.9c7.1,0,12.9,5.7,12.9,12.8c0,0,0,0,0,0C52.9,38.4,47.1,44.2,40,44.2z"/>
	<path class="st1" d="M65.5,27h-3.6c-0.5-2.6-1.4-5-2.7-7.3l2.6-2.8c1-1,0.9-2.7-0.2-3.6c0,0,0,0,0,0l-3.4-3.1c-1-1-2.7-0.9-3.6,0.2
		c0,0,0,0,0,0l-2,2.2c-2.4-1.7-5.2-2.9-8.1-3.5V5.7c0-1.4-1.2-2.6-2.6-2.6h-4.6c-1.4,0-2.6,1.2-2.6,2.6v3.6c-2.6,0.6-5,1.7-7.2,3.2
		L25.2,10c-1-1-2.6-1-3.6,0c0,0,0,0,0,0l-3.2,3.2c-1,1-1,2.6,0,3.6c0,0,0,0,0,0l2.6,2.6c-1.4,2.3-2.3,4.8-2.8,7.4H14
		c-1.4,0-2.5,1.1-2.5,2.5v2.3c0,0.5,0.4,0.8,0.8,0.8l0,0H18C18.9,44,28.4,53,40.1,53s21.2-9,22.1-20.4h5.1c0.5,0,0.8-0.4,0.8-0.8
		v-2.3C68.1,28.1,66.9,27,65.5,27C65.5,27,65.5,27,65.5,27z M40,44.1c-7.1,0-12.9-5.7-12.9-12.8c0-7.1,5.7-12.9,12.8-12.9
		c7.1,0,12.9,5.7,12.9,12.8c0,0,0,0,0,0C52.9,38.4,47.1,44.1,40,44.1z"/>
</g>
<g id="Layer_2_1_">
	<path class="st0" d="M14.5,32.6c0,0-3,17.4,15.9,24.5V63h18.5v-5.7c0,0,17.3-4,16-24.7H14.5z"/>
	<path class="st0" d="M30,63h19.3c0.7,0,1.2,0.5,1.2,1.2v2.8c0,0.7-0.5,1.2-1.2,1.2H30c-0.7,0-1.2-0.5-1.2-1.2v-2.8
		C28.8,63.5,29.3,63,30,63z"/>
	<path class="st0" d="M30,68.1h19.3c0.7,0,1.2,0.5,1.2,1.2v2.8c0,0.7-0.5,1.2-1.2,1.2H30c-0.7,0-1.2-0.5-1.2-1.2v-2.8
		C28.8,68.7,29.3,68.1,30,68.1z"/>
	<path class="st1" d="M30,68.1h19.3c0.7,0,1.2,0.5,1.2,1.2l0,0c0,0.7-0.5,1.2-1.2,1.2H30c-0.7,0-1.2-0.5-1.2-1.2l0,0
		C28.8,68.7,29.3,68.1,30,68.1z"/>
	<path class="st1" d="M30,63h19.3c0.7,0,1.2,0.5,1.2,1.2l0,0c0,0.7-0.5,1.2-1.2,1.2H30c-0.7,0-1.2-0.5-1.2-1.2l0,0
		C28.8,63.5,29.3,63,30,63z"/>
	<path class="st0" d="M32.5,73H47l-1.2,1.8c-0.8,1.3-2.2,2-3.7,2h-4.5c-1.4,0-2.6-0.6-3.4-1.7L32.5,73z"/>
	<path class="st2" d="M8.5,55.5l3.6-2.2c0.6-0.4,0.8-1.1,0.5-1.7c-0.3-0.6-1.1-0.8-1.7-0.5l-3.6,2.2c-0.6,0.4-0.8,1.1-0.5,1.7
		C7.1,55.7,7.9,55.9,8.5,55.5L8.5,55.5z"/>
	<path class="st2" d="M4,41.2l4.2-0.7c0.7-0.1,1.1-0.9,0.9-1.6c-0.2-0.7-0.9-1-1.6-0.9l-4.2,0.7c-0.7,0.1-1.1,0.9-0.9,1.6
		C2.6,41,3.3,41.3,4,41.2L4,41.2z"/>
	<path class="st2" d="M3.3,25.4l4.2,0.9c0.6,0.1,1.4-0.2,1.6-0.9c0.1-0.6-0.2-1.4-0.9-1.6L4,23c-0.6-0.1-1.4,0.2-1.6,0.9
		C2.3,24.5,2.6,25.3,3.3,25.4z"/>
	<path class="st2" d="M7.2,11.1l3.6,2.6c0.6,0.4,1.4,0.1,1.7-0.5c0.4-0.6,0.1-1.3-0.5-1.7L8.5,9C7.9,8.6,7.1,8.9,6.8,9.4
		C6.4,10,6.6,10.8,7.2,11.1L7.2,11.1z"/>
	<path class="st2" d="M72.8,53.4l-3.6-2.2c-0.6-0.4-1.4-0.1-1.7,0.5c-0.3,0.6-0.1,1.4,0.5,1.7l3.6,2.2c0.6,0.4,1.4,0.1,1.7-0.5
		C73.6,54.5,73.4,53.7,72.8,53.4L72.8,53.4z"/>
	<path class="st2" d="M76.7,38.7L72.5,38c-0.7-0.1-1.4,0.2-1.6,0.9c-0.1,0.6,0.2,1.4,0.9,1.6l4.2,0.7c0.7,0.1,1.4-0.2,1.6-0.9
		C77.7,39.7,77.4,38.9,76.7,38.7L76.7,38.7z"/>
	<path class="st2" d="M76,23l-4.2,0.9c-0.7,0.1-1.1,0.9-0.9,1.6c0.2,0.7,0.9,1,1.6,0.9l4.2-0.9c0.7-0.1,1.1-0.9,0.9-1.6
		C77.4,23.2,76.7,22.8,76,23L76,23z"/>
	<path class="st2" d="M72.1,9l-4.2,2.6c-0.6,0.4-0.8,1.1-0.5,1.7c0.3,0.6,1.1,0.8,1.7,0.5l4.2-2.6c0.6-0.4,0.8-1.1,0.5-1.7
		C73.5,8.8,72.7,8.6,72.1,9L72.1,9z"/>
</g>
</svg>
