<?xml version="1.0" encoding="utf-8"?>
<!-- Generator: Adobe Illustrator 25.2.2, SVG Export Plug-In . SVG Version: 6.00 Build 0)  -->
<svg version="1.1" id="Layer_1" xmlns="http://www.w3.org/2000/svg" xmlns:xlink="http://www.w3.org/1999/xlink" x="0px" y="0px"
	 viewBox="0 0 80 80" style="enable-background:new 0 0 80 80;" xml:space="preserve">
<style type="text/css">
	.st0{fill:#557FCF;}
	.st1{opacity:0.7;fill:#FFFFFF;enable-background:new    ;}
	.st2{opacity:0.6;fill:#FFFFFF;enable-background:new    ;}
	.st3{opacity:0.3;fill:#FFFFFF;enable-background:new    ;}
	.st4{opacity:0.8;fill:#FFFFFF;enable-background:new    ;}
	.st5{fill:#BDCEF4;}
	.st6{opacity:0.6;}
	.st7{fill:#FFFFFF;}
</style>
<g id="Layer_2_1_">
	<path class="st0" d="M8.3,10.2h63.5c1.1,0,1.9,0.8,1.9,1.9v50.4c0,1.1-0.8,1.9-1.9,1.9H8.3c-1.1,0-1.9-0.8-1.9-1.9V12.1
		C6.4,11,7.2,10.2,8.3,10.2z"/>
	<path class="st1" d="M8.3,10.2h63.5c1.1,0,1.9,0.8,1.9,1.9v50.4c0,1.1-0.8,1.9-1.9,1.9H8.3c-1.1,0-1.9-0.8-1.9-1.9V12.1
		C6.4,11,7.2,10.2,8.3,10.2z"/>
	<path class="st0" d="M8.2,10.2h63.6c1,0,1.9,0.8,1.9,1.9l0,0v9.1l0,0H6.4l0,0V12C6.4,11,7.2,10.2,8.2,10.2L8.2,10.2z"/>
	<path class="st2" d="M45.8,14.3h22.1c0.4,0,0.6,0.3,0.6,0.6v2.4c0,0.4-0.3,0.6-0.6,0.6H45.8c-0.4,0-0.6-0.3-0.6-0.6v-2.4
		C45.2,14.6,45.4,14.3,45.8,14.3z"/>
	<circle class="st3" cx="13.4" cy="16.1" r="1.8"/>
	<circle class="st2" cx="18.8" cy="16.1" r="1.8"/>
	<circle class="st4" cx="24.4" cy="16.1" r="1.8"/>
	<path class="st2" d="M14.2,27.8h51.7c0.8,0,1.4,0.6,1.4,1.4v17.5c0,0.8-0.6,1.4-1.4,1.4H14.2c-0.8,0-1.4-0.6-1.4-1.4V29.2
		C12.8,28.4,13.4,27.8,14.2,27.8z"/>
</g>
<g id="Layer_3">
	<path class="st5" d="M18.8,36.1h42.6c0.7,0,1.2,0.5,1.2,1.2v31.3c0,0.7-0.5,1.2-1.2,1.2H18.8c-0.7,0-1.2-0.5-1.2-1.2V37.3
		C17.5,36.6,18,36.1,18.8,36.1z"/>
	<path class="st0" d="M18.8,36.1h42.5c0.7,0,1.3,0.6,1.3,1.3v4.8l0,0H17.5l0,0v-4.8C17.5,36.7,18.1,36.1,18.8,36.1L18.8,36.1z"/>
	<path class="st2" d="M27.5,53H36c0.7,0,1.3,0.6,1.3,1.3v3.9c0,0.7-0.6,1.3-1.3,1.3h-8.5c-0.7,0-1.3-0.6-1.3-1.3v-3.9
		C26.1,53.5,26.7,53,27.5,53z"/>
	<path class="st2" d="M44.2,53h8.5c0.7,0,1.3,0.6,1.3,1.3v3.9c0,0.7-0.6,1.3-1.3,1.3h-8.5c-0.7,0-1.3-0.6-1.3-1.3v-3.9
		C42.8,53.5,43.5,53,44.2,53z"/>
	<g class="st6">
		<path class="st7" d="M32.3,50.8h4.4c0.4,0,0.4-0.7,0-0.7h-4.4C31.8,50.1,31.8,50.8,32.3,50.8z"/>
	</g>
	<g class="st6">
		<path class="st7" d="M34,48.6h2.8c0.4,0,0.4-0.7,0-0.7H34C33.4,47.9,33.4,48.6,34,48.6z"/>
	</g>
	<g class="st6">
		<path class="st7" d="M49.1,50.8h4.4c0.4,0,0.4-0.7,0-0.7h-4.4C48.6,50.1,48.6,50.8,49.1,50.8z"/>
	</g>
	<g class="st6">
		<path class="st7" d="M50.7,48.6h2.8c0.4,0,0.4-0.7,0-0.7h-2.8C50.2,47.9,50.2,48.6,50.7,48.6z"/>
	</g>
	<path class="st0" d="M55.4,58.2l-4.4-1.2c-0.1,0-0.3,0-0.3,0.2v0.1l1.2,4.4c0,0.1,0.2,0.2,0.3,0.2c0,0,0.1,0,0.1-0.1l0.5-0.5
		l2.3,2.3c0.2,0.2,0.4,0.2,0.6,0l0,0l1.6-1.6c0.2-0.2,0.2-0.4,0-0.6L55,59.1l0.5-0.5c0.1-0.1,0.1-0.3,0-0.4
		C55.5,58.2,55.4,58.2,55.4,58.2z"/>
</g>
</svg>
