<?xml version="1.0" encoding="utf-8"?>
<!-- Generator: Adobe Illustrator 25.2.2, SVG Export Plug-In . SVG Version: 6.00 Build 0)  -->
<svg version="1.1" id="Layer_1" xmlns="http://www.w3.org/2000/svg" xmlns:xlink="http://www.w3.org/1999/xlink" x="0px" y="0px"
	 viewBox="0 0 80 80" style="enable-background:new 0 0 80 80;" xml:space="preserve">
<style type="text/css">
	.st0{fill:#557FCF;}
	.st1{opacity:0.6;fill:#FFFFFF;enable-background:new    ;}
	.st2{fill:#BDCEF4;}
	.st3{opacity:0.6;}
	.st4{fill:#FFFFFF;}
</style>
<g id="Layer_2_1_">
	<path class="st0" d="M43.9,68.2c0,4.6-3.1,8.5-7.3,9.6c-0.9,0.2-1.7,0.4-2.7,0.4c-5.5,0-10-4.5-10-10l10-5.1L43.9,68.2z"/>
	<path class="st1" d="M43.4,71.2c-1,3.2-3.6,5.7-6.8,6.5c-2-0.6-3.8-1.8-5.1-3.3c-1-1.3-0.1-3.2,1.6-3.2L43.4,71.2L43.4,71.2z"/>
	<path class="st2" d="M59.7,58.2l-21.5,4.6L8.1,58.2c2.4,0,3.7-1.2,4.5-3.3c3.7-9.9-6.1-38.7,21.3-38.7S51.5,45,55.2,54.9
		C56,56.9,57.3,58.2,59.7,58.2z"/>
	<path class="st0" d="M64.7,63.2c0,2.8-2.2,5-5,5H8.1c-1.4,0-2.6-0.6-3.5-1.5c-0.9-0.9-1.5-2.2-1.5-3.5c0-2.8,2.2-5,5-5h51.6
		c1.4,0,2.6,0.6,3.5,1.5C64.1,60.5,64.7,61.8,64.7,63.2z"/>
	<path class="st0" d="M55.2,54.9H28.4c-2.9,0-5.2-2.4-5.1-5.3c0.4-12.2-1.6-33.2,10.4-33.5c-32.8,0.2-11.8,42-25.6,42h51.6
		C57.3,58.2,56,56.9,55.2,54.9z"/>
	<path class="st1" d="M64.7,63.2c0,2.8-2.2,5-5,5H22.5c-1.4,0-2.6-0.6-3.5-1.5c-0.9-0.9-1.5-2.2-1.5-3.5c0-2.8,2.2-5,5-5h37.1
		c1.4,0,2.6,0.6,3.5,1.5C64.1,60.5,64.7,61.8,64.7,63.2z"/>
	<path class="st0" d="M38.9,16.5c0-0.1,0-0.3,0-0.4c0-2.8-2.3-5.1-5.1-5.1c-2.8,0-5.1,2.3-5.1,5.1c0,0.1,0,0.3,0,0.4"/>
	<path class="st2" d="M9.1,33c-0.6,0-1-0.5-1-1c0-6.5,2.2-10.9,4.1-13.4c2.1-2.7,4.1-3.9,4.2-4c0.5-0.3,1.1-0.1,1.4,0.4
		c0.3,0.5,0.1,1.1-0.4,1.4c0,0-1.9,1.1-3.6,3.5c-2.4,3.2-3.6,7.3-3.6,12.1C10.1,32.6,9.6,33,9.1,33z"/>
	<path class="st2" d="M4.6,27.1c-0.6,0-1-0.5-1-1c0-7.7,4.8-10.9,5-11C9,14.8,9.6,15,9.9,15.4c0.3,0.5,0.2,1.1-0.3,1.4
		c-0.2,0.1-4,2.7-4,9.3C5.6,26.7,5.1,27.1,4.6,27.1z"/>
</g>
<g id="Layer_3">
	<path class="st0" d="M54.4,3.8L38.1,32.1c-0.9,1.6-0.4,3.7,1.2,4.6c0.5,0.3,1.1,0.5,1.7,0.5h32.7c1.9,0,3.4-1.5,3.4-3.4
		c0-0.6-0.2-1.2-0.5-1.7L60.2,3.8c-0.9-1.6-3-2.2-4.6-1.2C55.1,2.9,54.7,3.3,54.4,3.8z"/>
	<g class="st3">
		<path class="st4" d="M57.1,12.6h0.4c1,0,1.9,0.9,1.9,1.9v9.1c0,1-0.9,1.9-1.9,1.9h-0.4c-1,0-1.9-0.9-1.9-1.9v-9.1
			C55.2,13.4,56,12.6,57.1,12.6z"/>
		<circle class="st4" cx="57.3" cy="30.5" r="2.1"/>
	</g>
</g>
</svg>
