<?xml version="1.0" encoding="utf-8"?>
<!-- Generator: Adobe Illustrator 25.2.2, SVG Export Plug-In . SVG Version: 6.00 Build 0)  -->
<svg version="1.1" id="Layer_1" xmlns="http://www.w3.org/2000/svg" xmlns:xlink="http://www.w3.org/1999/xlink" x="0px" y="0px"
	 viewBox="0 0 80 80" style="enable-background:new 0 0 80 80;" xml:space="preserve">
<style type="text/css">
	.st0{fill:#557FCF;}
	.st1{fill:#BDCEF4;}
</style>
<g id="Layer_1_1_">
	<path class="st0" d="M66.9,28.6l7.4-5.5l-8.4-11.3l-7.4,5.5c-2.1,1.6-5,1.1-6.6-0.9c-0.7-1-1.1-2.2-0.9-3.5l1.3-9.1l-13.9-2
		L37.1,11c-0.4,2.6-2.7,4.3-5.3,4c-1.2-0.2-2.3-0.8-3.1-1.8l-5.5-7.4l-11.3,8.4l5.5,7.4c1.6,2.1,1.1,5-0.9,6.6
		c-1,0.7-2.2,1.1-3.5,0.9l-9.1-1.3l-2,13.9l9.1,1.3c2.6,0.4,4.3,2.7,4,5.3c-0.2,1.2-0.8,2.3-1.8,3.1l-7.4,5.5l8.4,11.3l7.4-5.5
		c2.1-1.6,5-1.1,6.6,0.9c0.7,1,1.1,2.2,0.9,3.5l-1.3,9.1l13.9,2L43,69c0.4-2.6,2.7-4.3,5.3-4c1.2,0.2,2.3,0.8,3.1,1.8l5.5,7.4
		l11.3-8.4l-5.5-7.4c-1.6-2.1-1.1-5,0.9-6.6c1-0.7,2.2-1.1,3.5-0.9l9.1,1.3l2-13.9L69,37c-2.6-0.4-4.3-2.7-4-5.3
		C65.2,30.5,65.9,29.4,66.9,28.6L66.9,28.6z M40,56.4C31,56.4,23.6,49,23.6,40c0-9.1,7.4-16.4,16.4-16.4c9.1,0,16.4,7.3,16.4,16.4
		C56.4,49,49.1,56.4,40,56.4C40,56.4,40,56.4,40,56.4z"/>
</g>
<g id="Layer_2_1_">
	<path class="st1" d="M38.1,27.6L27.5,46c-0.6,1-0.2,2.4,0.8,3c0.3,0.2,0.7,0.3,1.1,0.3h21.2c1.2,0,2.2-1,2.2-2.2
		c0-0.4-0.1-0.8-0.3-1.1L41.9,27.6c-0.6-1-1.9-1.4-3-0.8C38.6,27,38.3,27.2,38.1,27.6z"/>
	<path class="st0" d="M39.9,33.2h0.3c0.7,0,1.2,0.6,1.2,1.2v5.9c0,0.7-0.6,1.2-1.2,1.2h-0.3c-0.7,0-1.2-0.6-1.2-1.2v-5.9
		C38.6,33.8,39.2,33.2,39.9,33.2z"/>
	<circle class="st0" cx="40" cy="44.9" r="1.4"/>
</g>
</svg>
