<?xml version="1.0" encoding="utf-8"?>
<!-- Generator: Adobe Illustrator 25.2.2, SVG Export Plug-In . SVG Version: 6.00 Build 0)  -->
<svg version="1.1" id="Layer_1" xmlns="http://www.w3.org/2000/svg" xmlns:xlink="http://www.w3.org/1999/xlink" x="0px" y="0px"
	 viewBox="0 0 80 80" style="enable-background:new 0 0 80 80;" xml:space="preserve">
<style type="text/css">
	.st0{fill:#557FCF;}
	.st1{opacity:0.6;enable-background:new    ;}
	.st2{fill:#FFFFFF;}
</style>
<g id="Layer_4">
	<g>
		<rect x="55.5" y="8.1" class="st0" width="1.2" height="11.4"/>
	</g>
	<g>
		<rect x="62.1" y="37" class="st0" width="10.2" height="1.2"/>
	</g>
	<g>
		<rect x="61.4" y="45.5" class="st0" width="7.3" height="1.2"/>
	</g>
	<g>
		<rect x="28" y="60.1" class="st0" width="1.2" height="11.1"/>
	</g>
	<g>
		<rect x="11.5" y="35.9" class="st0" width="6.3" height="1.2"/>
	</g>
	<g>
		
			<rect x="12.6" y="23.5" transform="matrix(1.145186e-02 -0.9999 0.9999 1.145186e-02 -15.0558 40.9781)" class="st0" width="1.2" height="9.3"/>
	</g>
	<g>
		<circle class="st0" cx="6.1" cy="28.1" r="3.2"/>
	</g>
	<g>
		<circle class="st0" cx="9.4" cy="36.5" r="3.2"/>
	</g>
	<g>
		<circle class="st0" cx="28.6" cy="73.9" r="3.2"/>
	</g>
	<g>
		<circle class="st0" cx="70.5" cy="46.1" r="3.2"/>
	</g>
	<g>
		<circle class="st0" cx="73.9" cy="37.6" r="3.2"/>
	</g>
	<g>
		<circle class="st0" cx="56.2" cy="6.1" r="3.2"/>
	</g>
	<g class="st1">
		<circle class="st2" cx="6.1" cy="28.2" r="1.1"/>
	</g>
	<g class="st1">
		<circle class="st2" cx="9.4" cy="36.5" r="1.1"/>
	</g>
	<g class="st1">
		<circle class="st2" cx="28.6" cy="73.9" r="1.1"/>
	</g>
	<g class="st1">
		<circle class="st2" cx="70.5" cy="46.1" r="1.1"/>
	</g>
	<g class="st1">
		<circle class="st2" cx="73.9" cy="37.6" r="1.1"/>
	</g>
	<g class="st1">
		<circle class="st2" cx="56.2" cy="6" r="1.1"/>
	</g>
</g>
<g id="Layer_2_1_">
	<g>
		<path class="st0" d="M16.7,19.8v21.6c0,6.2,2.4,12.1,6.8,16.4c3.6,3.5,8.9,7.5,16.5,10.7c0,0,8.4-3.1,15.3-9.2
			c5-4.4,7.8-10.6,7.9-17.2l0.1-22.2c0,0-7.3-1.2-14.1-5.7c0,0-8.4-5.3-18.9,0C30.4,14.1,20.9,19.9,16.7,19.8z"/>
	</g>
	<g class="st1">
		<path class="st2" d="M20.9,23.1v18c0,5.1,2,10.1,5.6,13.7c3,2.9,7.3,6.2,13.6,8.9c0,0,6.9-2.6,12.6-7.7c4.1-3.6,6.4-8.9,6.5-14.4
			l0.1-18.6c0,0-6-1-11.6-4.8c0,0-6.9-4.5-15.6,0C32.2,18.3,24.4,23.2,20.9,23.1z"/>
	</g>
</g>
<g id="Layer_3">
	<g>
		<path class="st0" d="M40.1,28.4L40.1,28.4c-3,0-5.4,2.4-5.4,5.4c0,0,0,0,0,0v3.4h10.9v-3.4C45.5,30.9,43.1,28.4,40.1,28.4
			C40.1,28.4,40.1,28.4,40.1,28.4z M43.3,37h-6.6v-3.3c0-1.8,1.5-3.3,3.3-3.3c0,0,0,0,0,0l0,0c1.8,0,3.3,1.5,3.3,3.3c0,0,0,0,0,0V37
			z"/>
	</g>
	<g>
		<path class="st0" d="M34.3,36.7h11.6c0.9,0,1.6,0.7,1.6,1.6v8.4c0,0.9-0.7,1.6-1.6,1.6H34.3c-0.9,0-1.6-0.7-1.6-1.6v-8.4
			C32.7,37.4,33.4,36.7,34.3,36.7z"/>
	</g>
	<g class="st1">
		<path class="st2" d="M43.2,41.4c0-1.8-1.5-3.2-3.2-3.2c-1.8,0-3.2,1.5-3.2,3.2c0,1.4,0.9,2.7,2.3,3.1v1.3c0,0.5,0.4,1,1,1l0,0l0,0
			c0.5,0,1-0.4,1-1v-1.3C42.3,44.1,43.2,42.8,43.2,41.4z"/>
	</g>
	<g>
		<circle class="st0" cx="39.9" cy="41.4" r="1.2"/>
	</g>
</g>
</svg>
