<?xml version="1.0" encoding="utf-8"?>
<!-- Generator: Adobe Illustrator 25.2.2, SVG Export Plug-In . SVG Version: 6.00 Build 0)  -->
<svg version="1.1" id="Layer_1" xmlns="http://www.w3.org/2000/svg" xmlns:xlink="http://www.w3.org/1999/xlink" x="0px" y="0px"
	 viewBox="0 0 80 80" style="enable-background:new 0 0 80 80;" xml:space="preserve">
<style type="text/css">
	.st0{fill:#BDCEF4;}
	.st1{fill:#557FCF;}
	.st2{opacity:0.3;fill:#FFFFFF;enable-background:new    ;}
	.st3{opacity:0.6;fill:#FFFFFF;enable-background:new    ;}
	.st4{opacity:0.8;fill:#FFFFFF;enable-background:new    ;}
	.st5{fill:#FFFFFF;}
	.st6{opacity:0.6;fill:#557FCF;enable-background:new    ;}
	.st7{display:none;opacity:0.6;}
	.st8{display:inline;fill:#557FCF;}
</style>
<g id="Layer_1_1_">
	<path class="st0" d="M72.4,67.7h-64c-0.9,0-1.6-0.7-1.6-1.6V13.4c0-0.9,0.7-1.6,1.6-1.6h64c0.9,0,1.6,0.7,1.6,1.6v52.6
		C74,67,73.3,67.7,72.4,67.7z"/>
	<path class="st1" d="M74,21.9H6.9v-8.3c0-0.9,0.7-1.7,1.7-1.7h63.8c0.9,0,1.7,0.7,1.7,1.7V21.9L74,21.9z"/>
	<circle class="st2" cx="12" cy="17.5" r="2.2"/>
	<circle class="st3" cx="18.9" cy="17.5" r="2.2"/>
	<circle class="st4" cx="26" cy="17.5" r="2.2"/>
</g>
<g id="Layer_2_1_">
	<path class="st5" d="M41.4,23.1c8,0,14.6,4.9,17.8,8.1c0.6,0.6,0.6,1.6,0,2.2c-3.1,3.1-9.8,8.1-17.8,8.1s-14.6-4.9-17.8-8.1
		c-0.6-0.6-0.6-1.6,0-2.2C26.8,28,33.4,23.1,41.4,23.1z"/>
	<circle class="st6" cx="41.4" cy="32.4" r="9.2"/>
	<path class="st6" d="M36.6,24.5c-2.7,1.6-4.5,4.6-4.5,7.9c0,5.1,4.1,9.2,9.2,9.2c2.2,0,4.2-0.8,5.8-2.1
		C33.2,42.8,32.2,29.5,36.6,24.5z"/>
	<circle class="st1" cx="41.4" cy="32.4" r="4.5"/>
	<circle class="st5" cx="45.9" cy="29.9" r="2.2"/>
	<path class="st6" d="M24,30.9c3-1.9,10-5.9,17.4-5.9s14.4,3.9,17.4,5.9c-3.2-3.1-9.7-7.8-17.4-7.8S27.2,27.8,24,30.9z"/>
	<g class="st7">
		<path class="st8" d="M47.7,40.7c-0.2,0-0.3-0.1-0.4-0.2l-0.8-0.6c-0.3-0.3-0.4-0.6-0.1-1s0.6-0.4,1-0.1l0.8,0.6
			c0.3,0.3,0.4,0.6,0.1,1C48.1,40.6,47.8,40.7,47.7,40.7z"/>
		<path class="st8" d="M49.4,37.6c-0.1,0-0.1,0-0.2,0l-1.1-0.4c-0.4-0.1-0.5-0.4-0.4-0.8c0.1-0.4,0.4-0.5,0.8-0.4l1,0.3
			c0.4,0.1,0.5,0.4,0.4,0.8C49.9,37.4,49.6,37.6,49.4,37.6z"/>
		<path class="st8" d="M39.7,44C39.7,44,39.6,44,39.7,44c-0.4,0-0.7-0.4-0.7-0.7l0.1-1.1c0-0.4,0.4-0.6,0.7-0.6
			c0.4,0,0.6,0.4,0.6,0.7l-0.1,1.1C40.3,43.7,40,44,39.7,44z"/>
		<path class="st8" d="M31.5,37.1c-0.3,0-0.5-0.2-0.6-0.5c-0.1-0.4,0.1-0.7,0.4-0.8l1-0.3c0.4-0.1,0.7,0.1,0.8,0.4s-0.1,0.7-0.4,0.8
			l-1,0.3C31.7,37.1,31.6,37.1,31.5,37.1z"/>
		<path class="st8" d="M36.2,27.9c-0.2,0-0.4-0.1-0.5-0.4l-0.5-0.9c-0.2-0.4-0.1-0.7,0.2-0.9c0.4-0.2,0.7-0.1,0.9,0.2l0.5,0.9
			c0.2,0.4,0.1,0.7-0.2,0.9C36.4,27.9,36.3,27.9,36.2,27.9z"/>
		<path class="st8" d="M44.4,27.6c-0.1,0-0.2,0-0.3-0.1c-0.4-0.2-0.4-0.5-0.3-0.9l0.4-0.9c0.2-0.4,0.5-0.4,0.9-0.3s0.4,0.5,0.3,0.9
			L45,27.2C44.8,27.4,44.5,27.6,44.4,27.6z"/>
	</g>
</g>
<g id="Layer_3">
	<g>
		<g>
			<path class="st1" d="M49.3,65.2c1.9-1.8,3.8-3.7,5.7-5.5c0.3-0.3,0.5-0.5,0.8-0.8c1.2-1.1,0.3-3-1.3-3c-3.3,0-6.5,0-9.9,0
				c-5.2,0-10.4,0-15.5,0c-1.2,0-2.4,0-3.6,0c-0.9,0-1.9,0.8-1.8,1.8c0,1,0.8,1.8,1.8,1.8c3.3,0,6.5,0,9.9,0c5.2,0,10.4,0,15.5,0
				c1.2,0,2.4,0,3.6,0c-0.4-1-0.8-2.1-1.3-3c-1.9,1.8-3.8,3.7-5.7,5.5c-0.3,0.3-0.5,0.5-0.8,0.8c-0.7,0.6-0.7,1.9,0,2.5
				C47.5,65.9,48.6,65.9,49.3,65.2L49.3,65.2z"/>
		</g>
	</g>
	<g>
		<g>
			<path class="st1" d="M30.7,44.2c-1.9,1.8-3.8,3.7-5.7,5.5c-0.3,0.3-0.5,0.5-0.8,0.8c-1.2,1.1-0.3,3,1.3,3c3.3,0,6.5,0,9.9,0
				c5.2,0,10.4,0,15.5,0c1.2,0,2.4,0,3.6,0c0.9,0,1.9-0.8,1.8-1.8c0-1-0.8-1.8-1.8-1.8c-3.3,0-6.5,0-9.9,0c-5.2,0-10.4,0-15.5,0
				c-1.2,0-2.4,0-3.6,0c0.4,1,0.8,2.1,1.3,3c1.9-1.8,3.8-3.7,5.7-5.5c0.3-0.3,0.5-0.5,0.8-0.8c0.7-0.6,0.7-1.9,0-2.5
				C32.5,43.6,31.4,43.5,30.7,44.2L30.7,44.2z"/>
		</g>
	</g>
</g>
</svg>
