<svg xmlns="http://www.w3.org/2000/svg" width="220" height="352" viewBox="0 0 220 352">
  <path fill="none" stroke="#98C2F6" stroke-width="1.5" d="M183.001469,149.994055 C185.214381,149.994055 187.009309,151.787991 187.009309,154.001912 C187.009309,156.214832 185.214381,158.009768 183.001469,158.009768 C180.787557,158.009768 178.993629,156.214832 178.993629,154.001912 C178.993629,151.787991 180.787557,149.994055 183.001469,149.994055 Z M203.008736,122.003188 C203.008736,124.216109 201.213808,126.011045 199.000896,126.011045 C196.786985,126.011045 194.993056,124.216109 194.993056,122.003188 C194.993056,119.789268 196.786985,117.995332 199.000896,117.995332 C201.213808,117.995332 203.008736,119.789268 203.008736,122.003188 Z M219.008164,246.998201 C219.008164,249.211122 217.213235,251.006058 215.000324,251.006058 C212.786412,251.006058 210.992483,249.211122 210.992483,246.998201 C210.992483,244.78428 212.786412,242.990345 215.000324,242.990345 C217.213235,242.990345 219.008164,244.78428 219.008164,246.998201 Z M84.0050124,117.995332 C86.2179242,117.995332 88.0128525,119.789268 88.0128525,122.003188 C88.0128525,124.216109 86.2179242,126.011045 84.0050124,126.011045 C81.7911008,126.011045 79.9971724,124.216109 79.9971724,122.003188 C79.9971724,119.789268 81.7911008,117.995332 84.0050124,117.995332 Z M128.003438,157.993736 C130.216349,157.993736 132.011278,159.787672 132.011278,162.001592 C132.011278,164.214513 130.216349,166.009449 128.003438,166.009449 C125.789526,166.009449 123.995597,164.214513 123.995597,162.001592 C123.995597,159.787672 125.789526,157.993736 128.003438,157.993736 Z M191.001183,290.988429 C193.214094,290.988429 195.009023,292.782365 195.009023,294.996286 C195.009023,297.209207 193.214094,299.004142 191.001183,299.004142 C188.787271,299.004142 186.993343,297.209207 186.993343,294.996286 C186.993343,292.782365 188.787271,290.988429 191.001183,290.988429 Z M215.000424,194.99226 C217.213335,194.99226 219.008264,196.786195 219.008264,199.000116 C219.008264,201.213037 217.213335,203.007973 215.000424,203.007973 C212.786512,203.007973 210.992583,201.213037 210.992583,199.000116 C210.992583,196.786195 212.786512,194.99226 215.000424,194.99226 Z M5.00784009,184.992659 C7.22075179,184.992659 9.01568017,186.786594 9.01568017,189.000515 C9.01568017,191.213436 7.22075179,193.008372 5.00784009,193.008372 C2.79392842,193.008372 1,191.213436 1,189.000515 C1,186.786594 2.79392842,184.992659 5.00784009,184.992659 Z M92.0047261,282.988749 C94.2176378,282.988749 96.0125662,284.782684 96.0125662,286.996605 C96.0125662,289.209526 94.2176378,291.004462 92.0047261,291.004462 C89.7908144,291.004462 87.996886,289.209526 87.996886,286.996605 C87.996886,284.782684 89.7908144,282.988749 92.0047261,282.988749 Z M45.0065084,234.990664 C47.2194201,234.990664 49.0143485,236.7846 49.0143485,238.99852 C49.0143485,241.211441 47.2194201,243.006377 45.0065084,243.006377 C42.7925967,243.006377 40.9986683,241.211441 40.9986683,238.99852 C40.9986683,236.7846 42.7925967,234.990664 45.0065084,234.990664 Z M138.00308,78.9968879 C140.215991,78.9968879 142.01092,80.7908237 142.01092,83.0047444 C142.01092,85.2176652 140.215991,87.012601 138.00308,87.012601 C135.789168,87.012601 133.99524,85.2176652 133.99524,83.0047444 C133.99524,80.7908237 135.789168,78.9968879 138.00308,78.9968879 Z M132.003394,342.986355 C134.217306,342.986355 136.011234,344.78029 136.011234,346.994211 C136.011234,349.207132 134.217306,351.002068 132.003394,351.002068 C129.790483,351.002068 127.995554,349.207132 127.995554,346.994211 C127.995554,344.78029 129.790483,342.986355 132.003394,342.986355 Z M53.5063041,165.993417 C55.7202158,165.993417 57.5141442,167.787353 57.5141442,170.001273 C57.5141442,172.214194 55.7202158,174.00813 53.5063041,174.00813 C51.2933924,174.00813 49.498464,172.214194 49.498464,170.001273 C49.498464,167.787353 51.2933924,165.993417 53.5063041,165.993417 Z M191.001183,69.0133192 C188.787271,69.0133192 186.993343,67.2193834 186.993343,65.0054626 C186.993343,62.7925418 188.787271,60.9976061 191.001183,60.9976061 C193.214094,60.9976061 195.009023,62.7925418 195.009023,65.0054626 C195.009023,67.2193834 193.214094,69.0133192 191.001183,69.0133192 Z M175.001755,1 C177.215667,1 179.009595,2.79393579 179.009595,5.00785654 C179.009595,7.22077733 177.215667,9.01571308 175.001755,9.01571308 C172.787844,9.01571308 170.993915,7.22077733 170.993915,5.00785654 C170.993915,2.79393579 172.787844,1 175.001755,1 Z M5.00784009,125.995013 C7.22075179,125.995013 9.01568017,127.788948 9.01568017,130.001869 C9.01568017,132.21579 7.22075179,134.009726 5.00784009,134.009726 C2.79392842,134.009726 1,132.21579 1,130.001869 C1,127.788948 2.79392842,125.995013 5.00784009,125.995013 Z M138.00308,194.99226 C140.216991,194.99226 142.01092,196.786195 142.01092,199.000116 C142.01092,201.213037 140.216991,203.007973 138.00308,203.007973 C135.790168,203.007973 133.99524,201.213037 133.99524,199.000116 C133.99524,196.786195 135.790168,194.99226 138.00308,194.99226 Z M146.002793,238.990504 C148.215705,238.990504 150.010633,240.78444 150.010633,242.998361 C150.010633,245.211281 148.215705,247.006217 146.002793,247.006217 C143.788882,247.006217 141.994953,245.211281 141.994953,242.998361 C141.994953,240.78444 143.788882,238.990504 146.002793,238.990504 Z" opacity=".711"/>
</svg>
