<svg xmlns="http://www.w3.org/2000/svg" xmlns:xlink="http://www.w3.org/1999/xlink" width="968" height="765" viewBox="0 0 968 765">
  <defs>
    <filter id="Rectangle_59" x="0" y="282" width="968" height="483" filterUnits="userSpaceOnUse">
      <feOffset dy="3" input="SourceAlpha"/>
      <feGaussianBlur stdDeviation="3" result="blur"/>
      <feFlood flood-opacity="0.161"/>
      <feComposite operator="in" in2="blur"/>
      <feComposite in="SourceGraphic"/>
    </filter>
    <filter id="Rectangle_1" x="74" y="95" width="805" height="579" filterUnits="userSpaceOnUse">
      <feOffset dy="3" input="SourceAlpha"/>
      <feGaussianBlur stdDeviation="3" result="blur-2"/>
      <feFlood flood-opacity="0.161"/>
      <feComposite operator="in" in2="blur-2"/>
      <feComposite in="SourceGraphic"/>
    </filter>
    <filter id="Ellipse_1" x="405" y="32" width="144" height="144" filterUnits="userSpaceOnUse">
      <feOffset dy="3" input="SourceAlpha"/>
      <feGaussianBlur stdDeviation="3" result="blur-3"/>
      <feFlood flood-opacity="0.161"/>
      <feComposite operator="in" in2="blur-3"/>
      <feComposite in="SourceGraphic"/>
    </filter>
    <filter id="Rectangle_2" x="74" y="302" width="805" height="372" filterUnits="userSpaceOnUse">
      <feOffset dy="3" input="SourceAlpha"/>
      <feGaussianBlur stdDeviation="3" result="blur-4"/>
      <feFlood flood-opacity="0.161"/>
      <feComposite operator="in" in2="blur-4"/>
      <feComposite in="SourceGraphic"/>
    </filter>
    <filter id="Rectangle_3" x="154" y="392" width="650" height="65" filterUnits="userSpaceOnUse">
      <feOffset dy="3" input="SourceAlpha"/>
      <feGaussianBlur stdDeviation="3" result="blur-5"/>
      <feFlood flood-opacity="0.161"/>
      <feComposite operator="in" in2="blur-5"/>
      <feComposite in="SourceGraphic"/>
    </filter>
    <filter id="Rectangle_4" x="152" y="468" width="313" height="65" filterUnits="userSpaceOnUse">
      <feOffset dy="3" input="SourceAlpha"/>
      <feGaussianBlur stdDeviation="3" result="blur-6"/>
      <feFlood flood-opacity="0.161"/>
      <feComposite operator="in" in2="blur-6"/>
      <feComposite in="SourceGraphic"/>
    </filter>
    <filter id="Rectangle_5" x="491" y="468" width="313" height="65" filterUnits="userSpaceOnUse">
      <feOffset dy="3" input="SourceAlpha"/>
      <feGaussianBlur stdDeviation="3" result="blur-7"/>
      <feFlood flood-opacity="0.161"/>
      <feComposite operator="in" in2="blur-7"/>
      <feComposite in="SourceGraphic"/>
    </filter>
    <filter id="Rectangle_6" x="154" y="541" width="650" height="65" filterUnits="userSpaceOnUse">
      <feOffset dy="3" input="SourceAlpha"/>
      <feGaussianBlur stdDeviation="3" result="blur-8"/>
      <feFlood flood-opacity="0.161"/>
      <feComposite operator="in" in2="blur-8"/>
      <feComposite in="SourceGraphic"/>
    </filter>
  </defs>
  <g id="Group_47" data-name="Group 47" transform="translate(-821 -2792)">
    <path id="Rectangle_58" data-name="Rectangle 58" d="M13,0H937a13,13,0,0,1,13,13V409a0,0,0,0,1,0,0H0a0,0,0,0,1,0,0V13A13,13,0,0,1,13,0Z" transform="translate(830 2792)" fill="#36a879"/>
    <g id="Group_46" data-name="Group 46">
      <g transform="matrix(1, 0, 0, 1, 821, 2792)" filter="url(#Rectangle_59)">
        <rect id="Rectangle_59-2" data-name="Rectangle 59" width="950" height="465" rx="13" transform="translate(959 753) rotate(180)" fill="#fff"/>
      </g>
      <g id="Group_35" data-name="Group 35" transform="translate(-152 397)">
        <g transform="matrix(1, 0, 0, 1, 973, 2395)" filter="url(#Rectangle_1)">
          <rect id="Rectangle_1-2" data-name="Rectangle 1" width="787" height="561" rx="27" transform="translate(83 101)" fill="#fff"/>
        </g>
        <g transform="matrix(1, 0, 0, 1, 973, 2395)" filter="url(#Ellipse_1)">
          <circle id="Ellipse_1-2" data-name="Ellipse 1" cx="63" cy="63" r="63" transform="translate(414 38)" fill="#fff"/>
        </g>
        <g id="Group_20" data-name="Group 20" transform="translate(1398.213 2482.689)">
          <path id="Path_54" data-name="Path 54" d="M-355.522,371.122h7.075l9.06,19.069h-7.334Z" transform="translate(364.754 -371.122)" fill="#1a1818"/>
          <path id="Path_55" data-name="Path 55" d="M-372.306,390.565l-3.536-6.836-7.593,15.057h7.334Z" transform="translate(383.435 -379.559)" fill="#4c6fb4"/>
          <path id="Path_56" data-name="Path 56" d="M-301.907,371.122h-17.8l-1.9,4.228h7.852v14.841h5.9V375.35h7.852Z" transform="translate(342.058 -371.122)" fill="#1a1818"/>
          <path id="Path_57" data-name="Path 57" d="M-250,371.122h5.867v13.633h9.837v5.436H-250Z" transform="translate(294.135 -371.122)" fill="#1a1818"/>
          <g id="Group_19" data-name="Group 19" transform="translate(66.066)">
            <path id="Path_58" data-name="Path 58" d="M-183.7,371.507a21.39,21.39,0,0,1,4.26-.385c2.366,0,4.171.592,5.265,1.686a5.247,5.247,0,0,1,1.538,3.9,5.612,5.612,0,0,1-1.39,3.964,7.62,7.62,0,0,1-5.857,2.248,8.876,8.876,0,0,1-2.425-.237v8.519h-1.39Zm1.39,9.939a9.248,9.248,0,0,0,2.544.3c3.549,0,5.709-1.745,5.709-4.91,0-3.136-2.278-4.526-5.443-4.526a14,14,0,0,0-2.81.236Z" transform="translate(183.696 -371.122)" fill="#4c6fb4"/>
            <path id="Path_59" data-name="Path 59" d="M-136.336,402.458l-.207-2.041h-.089a5.326,5.326,0,0,1-4.526,2.367,3.874,3.874,0,0,1-4.171-3.9c0-3.283,2.9-5.265,8.667-5.206v-.355c0-1.42-.267-4.23-3.638-4.2a6.044,6.044,0,0,0-3.55,1.065l-.444-1.035a7.679,7.679,0,0,1,4.141-1.213c4.111,0,4.881,3.076,4.881,5.62v5.531a25.5,25.5,0,0,0,.207,3.372Zm-.325-7.6c-3.106-.089-7.188.385-7.188,3.786a2.715,2.715,0,0,0,2.84,2.958,4.274,4.274,0,0,0,4.2-2.84,3.064,3.064,0,0,0,.148-.858Z" transform="translate(158.019 -382.374)" fill="#4c6fb4"/>
            <path id="Path_60" data-name="Path 60" d="M-106.257,388.919l3.727,9.288c.385,1.006.769,2.13,1.035,3.047h.059c.3-.887.651-1.982,1.094-3.135l3.461-9.2h1.509l-4.26,10.589c-1.716,4.407-2.928,7.04-4.792,8.667a8.13,8.13,0,0,1-2.485,1.478l-.444-1.183a7.115,7.115,0,0,0,2.484-1.6,10.745,10.745,0,0,0,2.367-3.549,2.042,2.042,0,0,0,.177-.621,1.844,1.844,0,0,0-.177-.621l-5.265-13.163Z" transform="translate(132.881 -383.032)" fill="#4c6fb4"/>
          </g>
        </g>
        <g transform="matrix(1, 0, 0, 1, 973, 2395)" filter="url(#Rectangle_2)">
          <path id="Rectangle_2-2" data-name="Rectangle 2" d="M0,0H787a0,0,0,0,1,0,0V327a27,27,0,0,1-27,27H27A27,27,0,0,1,0,327V0A0,0,0,0,1,0,0Z" transform="translate(83 308)" fill="#f5f8fb"/>
        </g>
        <text id="Invoice_from_Mediplus" data-name="Invoice from Mediplus" transform="translate(1344 2623)" fill="#051933" font-size="20" font-family="SegoeUI-Bold, Segoe UI" font-weight="700"><tspan x="0" y="0">Invoice from Mediplus</tspan></text>
        <text id="Billed_to_Aaron_Andrews" data-name="Billed to Aaron Andrews" transform="translate(1343 2662)" fill="#051933" font-size="20" font-family="SegoeUI, Segoe UI"><tspan x="0" y="0">Billed to Aaron Andrews</tspan></text>
        <text id="_750.00_USD_due_Dec_1_2021" data-name="$ 750.00 USD due Dec 1, 2021" transform="translate(1317 2752)" fill="#051933" font-size="20" font-family="SegoeUI, Segoe UI"><tspan x="0" y="0">$ 750.00 USD due Dec 1, 2021</tspan></text>
        <g transform="matrix(1, 0, 0, 1, 973, 2395)" filter="url(#Rectangle_3)">
          <rect id="Rectangle_3-2" data-name="Rectangle 3" width="632" height="47" rx="5" transform="translate(163 398)" fill="#fff"/>
        </g>
        <g transform="matrix(1, 0, 0, 1, 973, 2395)" filter="url(#Rectangle_4)">
          <rect id="Rectangle_4-2" data-name="Rectangle 4" width="295" height="47" rx="5" transform="translate(161 474)" fill="#fff"/>
        </g>
        <g transform="matrix(1, 0, 0, 1, 973, 2395)" filter="url(#Rectangle_5)">
          <rect id="Rectangle_5-2" data-name="Rectangle 5" width="295" height="47" rx="5" transform="translate(500 474)" fill="#fff"/>
        </g>
        <g transform="matrix(1, 0, 0, 1, 973, 2395)" filter="url(#Rectangle_6)">
          <rect id="Rectangle_6-2" data-name="Rectangle 6" width="632" height="47" rx="5" transform="translate(163 547)" fill="#4c6fb4"/>
        </g>
        <path id="Icon_material-credit-card" data-name="Icon material-credit-card" d="M27.457,6H5.717a2.7,2.7,0,0,0-2.7,2.717L3,25.022A2.708,2.708,0,0,0,5.717,27.74h21.74a2.708,2.708,0,0,0,2.717-2.717V8.717A2.708,2.708,0,0,0,27.457,6Zm0,19.022H5.717V16.87h21.74Zm0-13.587H5.717V8.717h21.74Z" transform="translate(1148.237 2799.758)" fill="#223f78"/>
        <text id="Card_number" data-name="Card number" transform="translate(1195 2823)" fill="#051933" font-size="20" font-family="SegoeUI, Segoe UI" opacity="0.6"><tspan x="0" y="0">Card number</tspan></text>
        <text id="MM_YY" data-name="MM / YY" transform="translate(1195 2901)" fill="#051933" font-size="20" font-family="SegoeUI, Segoe UI" opacity="0.6"><tspan x="0" y="0">MM / YY</tspan></text>
        <g id="Icon_ionic-ios-calendar" data-name="Icon ionic-ios-calendar" transform="translate(1151.237 2880.011)">
          <path id="Path_61" data-name="Path 61" d="M27.937,6.75H25.324V8.318a.524.524,0,0,1-.523.523H23.756a.524.524,0,0,1-.523-.523V6.75H10.691V8.318a.524.524,0,0,1-.523.523H9.123A.524.524,0,0,1,8.6,8.318V6.75H5.988A2.621,2.621,0,0,0,3.375,9.363V27.131a2.621,2.621,0,0,0,2.613,2.613H27.937a2.621,2.621,0,0,0,2.613-2.613V9.363A2.621,2.621,0,0,0,27.937,6.75Zm.523,19.6a1.31,1.31,0,0,1-1.306,1.306H6.772a1.31,1.31,0,0,1-1.306-1.306V14.589a.524.524,0,0,1,.523-.523H27.937a.524.524,0,0,1,.523.523Z" transform="translate(-3.375 -4.66)" fill="#223f78"/>
          <path id="Path_62" data-name="Path 62" d="M11.09,5.023a.524.524,0,0,0-.523-.523H9.523A.524.524,0,0,0,9,5.023V6.59h2.09Z" transform="translate(-3.774 -4.5)" fill="#223f78"/>
          <path id="Path_63" data-name="Path 63" d="M26.84,5.023a.524.524,0,0,0-.523-.523H25.273a.524.524,0,0,0-.523.523V6.59h2.09Z" transform="translate(-4.892 -4.5)" fill="#223f78"/>
        </g>
        <text id="CVV" transform="translate(1506 2901)" fill="#051933" font-size="20" font-family="SegoeUI, Segoe UI" opacity="0.6"><tspan x="0" y="0">CVV</tspan></text>
        <text id="Pay_Now" data-name="Pay Now" transform="translate(1411 2974)" fill="#fff" font-size="20" font-family="SegoeUI, Segoe UI"><tspan x="0" y="0">Pay Now</tspan></text>
      </g>
    </g>
  </g>
</svg>
