<svg xmlns="http://www.w3.org/2000/svg" width="54.341" height="46.775" viewBox="0 0 54.341 46.775">
  <g id="key" transform="matrix(0.978, 0.208, -0.208, 0.978, 9.526, -4.678)" opacity="0.5">
    <g id="Group_4" data-name="Group 4" transform="translate(0 13.955)">
      <path id="Path_19" data-name="Path 19" d="M13.277,184.788l-.925-.921,1.656-1.649.009.009.936.933a1.346,1.346,0,0,0,1.9-1.912L13.5,177.909,31.925,159.6l-3.662-3.648L.4,183.76a1.35,1.35,0,0,0,0,1.912l1.754,1.748a1.342,1.342,0,0,0,1.9,0l3.981-4.061,3.354,3.342a1.346,1.346,0,0,0,1.9-1.912Z" transform="translate(0 -155.95)" fill="#f4da90"/>
      <path id="Path_20" data-name="Path 20" d="M26.307,202.8l-.925-.921,1.656-1.649.009.009.936.933a1.346,1.346,0,0,0,1.9-1.912l-3.351-3.339,18.427-18.311-1.885-1.878L14.31,204.566l.87.867a1.342,1.342,0,0,0,1.9,0l3.981-4.061,3.354,3.342a1.346,1.346,0,0,0,1.9-1.912Z" transform="translate(-13.029 -173.964)" fill="#e7aa60"/>
    </g>
    <g id="Group_5" data-name="Group 5" transform="translate(22.5 -0.001)">
      <path id="Path_21" data-name="Path 21" d="M270.065,21.322a6.553,6.553,0,0,0,.553-8.666,6.556,6.556,0,0,0,2.2-10.74,6.592,6.592,0,0,0-10.767,2.208,6.606,6.606,0,0,0-8.688.54,6.563,6.563,0,0,0,4.652,11.21,6.645,6.645,0,0,0,.868-.059,6.6,6.6,0,0,0-.058.861,6.589,6.589,0,0,0,11.235,4.647ZM268.17,2.692a3.9,3.9,0,0,1,2.757,1.136,3.855,3.855,0,0,1,0,5.469,3.914,3.914,0,0,1-5.514,0,3.855,3.855,0,0,1,0-5.469A3.894,3.894,0,0,1,268.17,2.692Zm-12.907,9.353a3.855,3.855,0,0,1,0-5.469,3.913,3.913,0,0,1,5.514,0,3.856,3.856,0,0,1,0,5.469,3.914,3.914,0,0,1-5.514,0Zm7.393,7.365a3.856,3.856,0,0,1,0-5.469,3.914,3.914,0,0,1,5.514,0,3.856,3.856,0,0,1,0,5.469A3.914,3.914,0,0,1,262.656,19.41Z" transform="translate(-251.437 0.001)" fill="#e7aa60"/>
      <path id="Path_22" data-name="Path 22" d="M345.284,40.468a6.553,6.553,0,0,0,.553-8.666,6.556,6.556,0,0,0,2.2-10.74L348,21.027l-1.9,1.906.043.041a3.855,3.855,0,0,1,0,5.469,3.914,3.914,0,0,1-5.514,0l-.013-.013-6.513,6.53a6.609,6.609,0,0,0-.058.861,6.589,6.589,0,0,0,11.235,4.647Zm-7.409-1.912a3.856,3.856,0,0,1,0-5.469,3.914,3.914,0,0,1,5.514,0,3.856,3.856,0,0,1,0,5.469,3.914,3.914,0,0,1-5.514,0Z" transform="translate(-326.656 -19.145)" fill="#e48d3c"/>
    </g>
  </g>
</svg>
