<svg xmlns="http://www.w3.org/2000/svg" width="818.632" height="206.188" viewBox="0 0 818.632 206.188">
  <g id="Group_9" data-name="Group 9" transform="translate(-211.517 -333.271)">
    <g id="Group_8" data-name="Group 8" transform="translate(211.517 333.271)">
      <path id="Path_37" data-name="Path 37" d="M324.729,449.173c0,13.555-4.773,24.819-14.51,33.41s-23.1,12.791-40.283,12.791c-28.064,0-49.446-13.555-58.42-35.128L238.245,446.5c5.918,12.982,17.564,20.81,32.647,20.81,13.173,0,22.719-6.682,22.719-15.846a11.466,11.466,0,0,0-5.918-10.309c-3.818-2.672-11.264-5.727-22.337-8.973-17.373-5.154-29.592-11.263-36.465-18.136-7.636-7.446-11.455-16.609-11.455-27.683,0-13.173,5.155-23.865,15.273-32.265,10.118-8.591,22.527-12.791,36.846-12.791,25.01,0,43.91,11.646,52.5,32.265l-25.582,13.937c-5.155-12.219-14.51-18.328-28.256-18.328-12.219,0-19.855,6.3-19.855,15.273s7.064,13.555,24.055,18.328C308.12,412.9,324.729,425.308,324.729,449.173Z" transform="translate(-211.517 -337.106)"/>
      <path id="Path_38" data-name="Path 38" d="M487.3,493.545c1.718,12.409,12.409,20.046,25.2,20.046,8.973,0,18.137-4.773,22.719-12.219L556.79,515.5c-8.591,15.464-23.1,23.1-43.91,23.1-15.846,0-29.019-4.964-39.9-14.891-10.691-10.119-16.037-22.91-16.037-38.565,0-14.7,5.346-27.109,15.846-37.609a52.625,52.625,0,0,1,38.183-15.656c15.082,0,27.3,4.773,36.656,14.128s14.128,21.764,14.128,36.846c0,4.773-.191,8.4-.382,10.691Zm44.674-19.664c-.764-8.973-8.209-17.755-21.764-17.755-6.109,0-11.264,1.91-15.273,5.918-4.009,3.819-6.3,7.827-6.873,11.837Z" transform="translate(-328.649 -380.333)"/>
      <path id="Path_39" data-name="Path 39" d="M701.763,523.694C691.454,513.575,686.3,500.975,686.3,485.7c0-15.082,5.346-27.683,16.037-37.992s23.673-15.464,38.947-15.464c22.719,0,41.428,11.455,48.11,31.5l-26.155,10.882c-4.391-10.118-11.837-15.082-21.955-15.082-13.746,0-24.437,9.927-24.437,25.773,0,15.273,9.927,25.964,24.437,25.964,10.691,0,18.137-4.964,22.528-15.082l26.346,10.882c-7.827,20.81-26.346,31.692-49.065,31.692C725.245,538.776,712.073,533.812,701.763,523.694Z" transform="translate(-438.112 -380.508)"/>
      <path id="Path_40" data-name="Path 40" d="M950.549,436.628v56.893c0,12.028,5.537,19.473,17.565,19.473s18.327-8.209,18.327-19.473V436.628h29.783V538.576h-29.4v-12.6h-.191c-6.682,9.736-16.228,14.7-28.446,14.7-12.028,0-21.383-3.819-27.873-11.455-6.3-7.828-9.546-17.374-9.546-28.637V436.628Z" transform="translate(-550.014 -382.599)"/>
      <path id="Path_41" data-name="Path 41" d="M1220.493,464.6a42.3,42.3,0,0,0-7.064-.573c-19.282,0-27.683,12.028-27.683,30.355v43.146h-29.783V435.582h29.591v15.655h.191c4.391-9.354,15.273-16.8,28.828-16.8a17.119,17.119,0,0,1,5.918.764Z" transform="translate(-662.264 -381.554)"/>
      <path id="Path_42" data-name="Path 42" d="M1341.276,351.79a18.52,18.52,0,0,1-37.038,0,18.622,18.622,0,0,1,18.328-18.519A18.34,18.34,0,0,1,1341.276,351.79Zm-33.41,137.458V387.3h29.973V489.248Z" transform="translate(-733.03 -333.271)"/>
      <path id="Path_43" data-name="Path 43" d="M1475.219,508.9a47.307,47.307,0,0,1-13.937,1.909c-26.537,0-40.474-14.51-40.474-38.374V433.293H1402.48V407.519h18.709V375.637h29.4v31.882h25.2v25.774h-25.2V468.8c0,11.646,6.109,16.228,17.754,16.228a26.152,26.152,0,0,0,6.874-.764Z" transform="translate(-779.917 -353.491)"/>
      <path id="Path_44" data-name="Path 44" d="M1563.906,436.628h32.837l25.391,58.229,22.719-58.229h30.738l-61.856,152.159h-31.884l25.01-61.093Z" transform="translate(-856.959 -382.599)"/>
    </g>
    <path id="Path_45" data-name="Path 45" d="M774.825,539.316l-4.493,24.549h21.594l-5.7-24.549a11.238,11.238,0,0,0,5.7-9.654,11.4,11.4,0,0,0-22.8,0A11.238,11.238,0,0,0,774.825,539.316Z" transform="translate(-265.124 -93.288)"/>
  </g>
</svg>
